<svg xmlns="http://www.w3.org/2000/svg" height="48" viewBox="0 -960 960 960" width="48"><path d="M483.451-239.348q17.946 0 30.748-12.669Q527-264.685 527-282.751q0-18.065-12.731-30.69-12.731-12.624-30.796-12.624-18.066 0-30.748 12.535-12.682 12.535-12.682 30.758 0 17.946 12.643 30.685 12.642 12.739 30.765 12.739Zm-41.168-150.848h71.239q0-27.067 6.119-49.457 6.12-22.39 41.446-52.195 30.761-24.282 43.902-50.119 13.141-25.836 13.141-57.788 0-56.313-35.636-89.225-35.636-32.911-95.469-32.911-54.068 0-93.688 26.858-39.62 26.859-57.098 73.655l63.957 24.204q9.478-27.239 30.855-43.88 21.377-16.642 51.471-16.642 30.206 0 50.309 16.879 20.104 16.879 20.104 44.133 0 21.119-13.117 40.38-13.116 19.261-36.492 39.065-31.804 26.804-46.424 53.538-14.619 26.734-14.619 73.505Zm37.292 327.392q-85.454 0-161.65-32.92-76.196-32.921-132.738-89.463-56.542-56.542-89.462-132.836-32.92-76.294-32.92-161.944 0-86.544 32.979-162.657 32.979-76.114 89.809-132.934 56.83-56.821 132.741-89.349 75.911-32.528 161.17-32.528 86.622 0 163.08 32.506 76.458 32.505 133.036 89.3 56.577 56.795 89.196 133.094 32.619 76.298 32.619 163.077 0 85.763-32.528 161.415-32.528 75.652-89.349 132.466-56.82 56.814-133.047 89.793-76.227 32.98-162.936 32.98Zm.37-77.305q141.133 0 240.539-99.702 99.407-99.701 99.407-240.134 0-141.133-99.352-240.539-99.352-99.407-240.604-99.407-140.252 0-240.039 99.352-99.787 99.352-99.787 240.604 0 140.252 99.702 240.039 99.701 99.787 240.134 99.787ZM480-480Z"/></svg>