<svg width="21" height="19" viewBox="0 0 21 19" fill="none" xmlns="http://www.w3.org/2000/svg">
<path d="M19.4107 8.51517C20.5127 8.70934 20.5127 10.2907 19.4107 10.4848L15.0645 11.2506C14.452 11.3586 14.0856 11.9933 14.2983 12.5776L15.8083 16.7245C16.1911 17.7759 14.8216 18.5666 14.1025 17.7093L11.2661 14.3283C10.8665 13.8519 10.1335 13.8519 9.73388 14.3283L6.89752 17.7093C6.17838 18.5666 4.80891 17.7759 5.19174 16.7245L6.70167 12.5776C6.91442 11.9933 6.54795 11.3586 5.93555 11.2506L1.58926 10.4848C0.487296 10.2907 0.487295 8.70934 1.58926 8.51517L5.93554 7.74936C6.54795 7.64145 6.91442 7.00671 6.70167 6.42239L5.19174 2.27549C4.80891 1.22408 6.17838 0.433411 6.89752 1.29066L9.73388 4.67174C10.1335 5.14815 10.8665 5.14815 11.2661 4.67174L14.1025 1.29066C14.8216 0.433412 16.1911 1.22407 15.8083 2.27549L14.2983 6.42239C14.0856 7.0067 14.452 7.64145 15.0645 7.74935L19.4107 8.51517Z" fill="#E859FF"/>
</svg>
