<svg width="1080" height="1080" viewBox="0 0 1080 1080" fill="none" xmlns="http://www.w3.org/2000/svg">
<path d="M929.158 476.486C978.746 485.224 978.746 556.383 929.158 565.121L733.575 599.582C706.017 604.438 689.525 633.002 699.099 659.296L767.046 845.907C784.273 893.22 722.647 928.8 690.286 890.224L562.65 738.075C544.666 716.637 511.683 716.637 493.699 738.075L366.063 890.224C333.702 928.8 272.076 893.22 289.303 845.907L357.25 659.296C366.824 633.002 350.333 604.438 322.774 599.582L127.191 565.121C77.6028 556.383 77.6027 485.224 127.191 476.486L322.774 442.024C350.332 437.169 366.824 408.605 357.25 382.311L289.303 195.7C272.076 148.387 333.702 112.807 366.063 151.383L493.699 303.532C511.683 324.97 544.666 324.97 562.65 303.532L690.286 151.383C722.647 112.807 784.273 148.387 767.046 195.7L699.099 382.311C689.526 408.605 706.017 437.169 733.575 442.024L929.158 476.486Z" fill="#E859FF"/>
</svg>
