<?xml version="1.0" encoding="utf-8"?>
<!-- Generator: Adobe Illustrator 27.7.0, SVG Export Plug-In . SVG Version: 6.00 Build 0)  -->
<svg version="1.1" id="Warstwa_1" xmlns="http://www.w3.org/2000/svg" xmlns:xlink="http://www.w3.org/1999/xlink" x="0px" y="0px"
	 viewBox="0 0 103 29" style="enable-background:new 0 0 103 29;" xml:space="preserve">
<style type="text/css">
	.st0{fill:#E859FF;}
	.st1{fill:#3C3333;}
</style>
<path class="st0" d="M23.4,13.5c1.1,0.2,1.1,1.8,0,2l-4.3,0.8c-0.6,0.1-1,0.7-0.8,1.3l1.5,4.1c0.4,1.1-1,1.8-1.7,1l-2.8-3.4
	c-0.4-0.5-1.1-0.5-1.5,0l-2.8,3.4c-0.7,0.9-2.1,0.1-1.7-1l1.5-4.1c0.2-0.6-0.2-1.2-0.8-1.3l-4.3-0.8c-1.1-0.2-1.1-1.8,0-2l4.3-0.8
	c0.6-0.1,1-0.7,0.8-1.3L9.2,7.3c-0.4-1.1,1-1.8,1.7-1l2.8,3.4c0.4,0.5,1.1,0.5,1.5,0l2.8-3.4c0.7-0.9,2.1-0.1,1.7,1l-1.5,4.1
	c-0.2,0.6,0.2,1.2,0.8,1.3L23.4,13.5z"/>
<g>
	<path class="st1" d="M33.1,14.4c0-4.3,2.2-6.6,5.6-6.6s5.6,2.3,5.6,6.6c0,4.3-2.2,6.6-5.6,6.6S33.1,18.7,33.1,14.4z M41.3,15.3
		v-1.9c0-2-1-3.2-2.7-3.2c-1.7,0-2.7,1.1-2.7,3.2v1.9c0,2,1,3.2,2.7,3.2C40.3,18.5,41.3,17.3,41.3,15.3z"/>
	<path class="st1" d="M45.8,15.9c0-3.1,1.6-5,4.5-5c1.9,0,3.3,0.9,3.8,2.5l-2.2,0.9c-0.2-0.7-0.7-1.3-1.6-1.3c-1.1,0-1.7,0.8-1.7,2
		v1.8c0,1.2,0.6,2,1.7,2c1.1,0,1.5-0.7,1.8-1.4l2.1,0.9c-0.6,1.8-2,2.6-3.9,2.6C47.4,20.9,45.8,19,45.8,15.9z"/>
	<path class="st1" d="M59.1,20.7c-1.9,0-2.8-1-2.8-2.8v-4.7H55v-2.1h0.7c0.7,0,0.9-0.4,0.9-1V8.6H59v2.6h1.9v2.1H59v5.4h1.7v2.1
		H59.1z"/>
	<path class="st1" d="M62.1,15.9c0-3.1,1.7-5,4.5-5c2.8,0,4.5,1.9,4.5,5c0,3.1-1.7,5-4.5,5C63.8,20.9,62.1,19,62.1,15.9z M68.2,16.9
		V15c0-1.2-0.6-1.9-1.7-1.9c-1.1,0-1.7,0.7-1.7,1.9v1.9c0,1.2,0.6,1.9,1.7,1.9C67.6,18.8,68.2,18.1,68.2,16.9z"/>
	<path class="st1" d="M73,11.2h2.7v1.6h0.1c0.3-1.1,1.3-1.8,2.6-1.8c2.4,0,3.7,1.7,3.7,5s-1.3,5-3.7,5c-1.2,0-2.3-0.8-2.6-1.8h-0.1
		v5.2H73V11.2z M79.2,16.8v-1.7c0-1.2-0.7-2-1.8-2s-1.8,0.5-1.8,1.4v2.8c0,0.9,0.7,1.4,1.8,1.4S79.2,18,79.2,16.8z"/>
	<path class="st1" d="M89.7,19.1L89.7,19.1c-0.4,1-1.2,1.8-2.8,1.8c-1.9,0-3-1.4-3-3.8v-6h2.7v5.8c0,1.2,0.4,1.8,1.4,1.8
		c0.8,0,1.7-0.5,1.7-1.4v-6.2h2.7v9.5h-2.7V19.1z"/>
	<path class="st1" d="M94.1,19.2l1.6-1.6c0.7,0.7,1.5,1.2,2.5,1.2c1.1,0,1.4-0.3,1.4-0.9c0-0.5-0.3-0.7-1-0.8l-1-0.1
		c-2.2-0.3-3.2-1.2-3.2-2.9c0-1.8,1.4-3.1,3.7-3.1c2,0,2.9,0.5,3.9,1.5l-1.5,1.6c-0.6-0.6-1.4-1-2.2-1c-0.9,0-1.3,0.3-1.3,0.8
		c0,0.5,0.2,0.8,1,0.9l1.1,0.1c2.1,0.3,3.1,1.2,3.1,2.9c0,1.8-1.6,3.2-4.1,3.2C96.3,20.9,95.1,20.3,94.1,19.2z"/>
</g>
</svg>
